<?xml version="1.0" encoding="UTF-8"?>
<svg width="700pt" height="700pt" version="1.1" viewBox="0 0 700 700" xmlns="http://www.w3.org/2000/svg">
 <path d="m581.18 486.32-173.6-173.6v0.003906c27.441-33.812 40.855-76.863 37.477-120.28-3.3789-43.41-23.297-83.871-55.637-113.02-32.344-29.156-74.645-44.781-118.18-43.656-43.527 1.1289-84.965 18.926-115.75 49.715s-48.586 72.227-49.715 115.75c-1.125 43.531 14.5 85.832 43.656 118.18 29.152 32.34 69.613 52.258 113.02 55.637 43.414 3.3789 86.465-10.035 120.28-37.477l173.6 173.6h-0.003906c3.2852 3.3125 7.7578 5.1758 12.426 5.1758s9.1406-1.8633 12.426-5.1758c3.3125-3.2852 5.1758-7.7578 5.1758-12.426s-1.8633-9.1406-5.1758-12.426zm-401.62-185.32c-25.422-25.395-39.711-59.848-39.727-95.781-0.011719-35.93 14.254-70.398 39.656-95.809 25.402-25.414 59.863-39.691 95.793-39.691 35.934 0 70.395 14.277 95.797 39.691 25.402 25.41 39.668 59.879 39.656 95.809-0.015624 35.934-14.305 70.387-39.727 95.781-25.398 25.371-59.828 39.621-95.727 39.621-35.895 0-70.324-14.25-95.723-39.621z"/>
</svg>
